<svg viewBox="0 0 910 295" xmlns="http://www.w3.org/2000/svg">
  <g fill="none" fill-rule="evenodd">
    <path d="M376.0381,635.3768 C379.3361,635.6328 382.6341,635.8888 385.9311,636.1448 C395.4171,639.4848 404.2261,644.1718 412.2791,650.1388 C437.4781,668.8118 464.2011,685.1438 490.9061,701.4958 C522.3221,720.7328 554.2361,739.0758 588.2031,753.5468 C595.3771,756.6028 602.4091,760.4048 610.3801,760.8778 C628.8441,761.9718 646.1411,740.8688 642.6561,721.6578 C639.7141,705.4368 635.1841,689.5838 631.2701,673.5908 C616.4761,613.1408 601.7341,552.6758 586.5521,492.3218 C583.1841,478.9378 586.2681,468.9218 596.6731,459.8948 C614.9111,444.0708 632.4951,427.4958 650.4101,411.2978 C666.9621,396.3338 683.0731,380.8918 700.4581,366.8388 C720.2771,350.8178 739.7441,334.3588 757.4801,315.9738 C763.8251,309.3978 767.9101,302.0248 765.9371,292.5998 C762.8531,277.8638 754.8241,267.4818 739.5581,263.8758 C725.7771,260.6198 711.6591,259.4048 697.7251,257.0638 C671.2981,252.6228 644.6251,250.2358 617.9601,247.6888 C590.9441,245.1078 563.9431,242.5268 536.7991,241.9118 C521.6781,241.5698 516.6661,238.3388 511.3961,224.2338 C505.9641,209.6938 499.5781,195.5948 492.5111,181.7988 C481.6471,160.5948 470.6681,139.4508 459.7981,118.2518 C457.1421,113.0718 455.1231,107.5698 451.6751,102.7938 C448.1131,97.8598 443.3261,95.9548 437.3751,96.6038 C424.7441,97.9798 414.8161,104.0498 406.9691,113.8808 C399.0521,123.7978 392.5841,134.7088 385.3921,145.1218 C362.8881,177.7028 339.6651,209.8518 322.0741,245.5158 C316.6091,256.5938 308.4211,263.6898 296.6621,267.8548 C271.3951,276.8058 246.3281,286.3438 221.3631,296.1128 C205.3851,302.3658 189.5941,309.2348 175.9711,320.0108 C160.0771,332.5828 154.3851,354.4638 164.1061,369.8528 C183.9331,401.2378 202.1431,433.7518 225.6171,462.6808 C233.3121,472.1638 236.6131,482.2108 235.0681,494.0938 C234.5541,498.0528 234.0771,502.0188 233.4481,505.9598 C228.2171,538.7308 219.7261,570.8728 214.5931,603.6648 C210.8561,627.5348 207.3271,651.4028 209.8671,675.6878 C210.9681,686.2208 213.1641,696.4498 218.5151,705.7008 C224.8161,716.5948 231.8471,718.6878 242.5641,712.2748 C279.2991,690.2968 315.8871,668.0728 352.5371,645.9538 C359.9421,641.4838 367.2271,636.7308 376.0381,635.3768 M176.7391,663.7018 C177.9681,620.4578 184.7171,577.8818 192.6091,535.4468 C194.8001,523.6658 196.7261,511.8328 199.0571,500.0798 C201.1901,489.3238 198.9461,479.6978 193.0581,470.5558 C183.4611,455.6568 171.9591,442.2388 160.9851,428.4058 C152.4821,417.6898 144.7171,406.5208 137.8381,394.6458 C115.4551,356.0038 131.0891,316.8788 156.6521,293.8658 C169.8201,282.0118 185.4031,274.0028 201.5801,267.1828 C224.6081,257.4748 247.9501,248.5218 271.8371,241.1758 C283.5431,237.5758 291.8381,230.8708 297.8471,220.2258 C318.0791,184.3828 338.7771,148.8038 362.1301,114.8628 C370.4521,102.7688 379.1431,90.8968 390.1381,81.0528 C408.8681,64.2828 431.2361,59.2658 455.5971,62.2968 C467.2151,63.7428 475.3221,70.8448 480.2651,81.3038 C488.6611,99.0738 496.8271,116.9518 505.1071,134.7758 C513.8801,153.6598 523.0271,172.3798 531.3261,191.4678 C536.6281,203.6608 545.3181,209.4118 558.3491,209.7918 C574.0211,210.2488 589.4941,213.0398 605.1031,214.2868 C624.6841,215.8518 644.2611,217.4528 663.8501,218.8798 C693.4791,221.0398 722.6641,225.9398 751.6351,232.4118 C777.9641,238.2938 790.0621,257.6768 797.8541,280.8998 C804.7871,301.5598 800.8341,320.3108 786.1791,336.6488 C781.0461,342.3708 775.5831,347.7658 769.5051,352.4508 C736.9801,377.5188 707.4871,406.0528 676.8731,433.3028 C661.9341,446.5988 647.3901,460.3478 632.2091,473.3558 C622.3341,481.8188 619.5041,491.2598 622.6621,503.9788 C639.2271,570.7028 655.1681,637.5828 672.2441,704.1818 C674.5681,713.2448 675.9311,722.4838 675.9611,731.8618 C676.0081,746.6728 671.1501,759.5838 660.9551,770.4718 C653.7081,778.2118 645.4441,784.5618 636.1911,789.7038 C618.8441,799.3458 601.1411,798.8448 583.1971,791.6708 C574.8161,788.3198 566.9861,783.8938 559.2931,779.2108 C504.9271,746.1198 449.8171,714.2578 395.9731,680.3058 C394.7051,679.5058 393.3681,678.8148 392.1081,678.0048 C383.5421,672.4888 375.0351,672.4108 366.2681,677.7518 C350.7611,687.2008 335.1121,696.4188 319.5521,705.7808 C299.7091,717.7198 279.6571,729.3188 260.5431,742.4368 C256.0061,745.5498 251.1401,748.1198 246.0591,750.2758 C229.6551,757.2408 215.0621,754.3158 202.3811,742.0268 C186.3581,726.5008 177.4791,707.6368 176.7741,685.1958 C176.5491,678.0378 176.7391,670.8668 176.7391,663.7018" fill="#424142" transform="translate(0 -304)"/>
    <path d="M471.7617,331.9739 C464.8567,332.3649 460.0317,332.6269 455.2077,332.9149 C451.3977,333.1429 449.8007,331.3859 449.8157,327.5659 C449.8637,314.9249 451.7077,302.4109 452.3277,289.8119 C453.1937,272.2469 456.7057,254.8549 456.0927,237.2049 C455.6367,224.0979 452.0407,211.9129 443.7537,201.4379 C437.6007,193.6599 429.7747,188.6789 419.8087,187.4329 C404.9857,185.5809 392.0797,190.5469 380.7817,199.5409 C358.7957,217.0429 346.2957,240.2219 341.7967,267.7759 C337.9877,291.1069 334.8387,314.5379 332.3997,338.0519 C331.8597,343.2599 329.7577,345.7729 324.4697,346.2829 C318.5187,346.8569 312.6007,347.9259 306.7207,349.0559 C300.1737,350.3129 295.0887,353.9659 291.5947,359.6169 C288.7047,364.2909 287.9037,369.4229 290.6307,374.3439 C293.2417,379.0569 297.9307,380.5299 303.0577,380.1509 C309.0307,379.7089 314.9807,378.9519 320.9347,378.2819 C325.2907,377.7909 327.1327,379.7209 326.7647,384.0259 C325.9847,393.1479 325.0247,402.2619 324.5417,411.3999 C323.5287,430.5609 320.5717,449.6569 323.9817,468.9369 C327.3307,487.8739 333.7507,505.2879 346.7347,519.7469 C356.9837,531.1599 369.7837,536.4399 385.2417,534.1879 C400.5117,531.9639 411.1417,522.5509 420.0507,510.9209 C435.0537,491.3359 443.1167,468.8979 445.0207,444.4759 C446.8317,421.2399 447.6207,397.9239 448.8687,374.6439 C449.2347,367.8319 449.5577,367.3519 456.3737,366.7639 C464.6687,366.0459 472.9927,365.6609 481.2957,365.0119 C486.2467,364.6239 490.6207,362.6059 494.5537,359.6379 C499.5237,355.8879 502.5927,351.1619 501.5767,344.6519 C500.5447,338.0379 495.8557,334.7369 490.0377,332.8019 C483.3637,330.5819 476.4767,332.0139 471.7617,331.9739 M376.0377,635.3769 C367.2267,636.7309 359.9427,641.4839 352.5367,645.9539 C315.8867,668.0729 279.2987,690.2969 242.5647,712.2749 C231.8467,718.6869 224.8167,716.5949 218.5147,705.7009 C213.1647,696.4499 210.9687,686.2209 209.8667,675.6869 C207.3267,651.4029 210.8567,627.5349 214.5927,603.6649 C219.7257,570.8729 228.2177,538.7299 233.4477,505.9599 C234.0767,502.0179 234.5537,498.0529 235.0687,494.0939 C236.6137,482.2109 233.3117,472.1639 225.6167,462.6809 C202.1437,433.7519 183.9327,401.2379 164.1067,369.8519 C154.3857,354.4639 160.0767,332.5819 175.9707,320.0109 C189.5947,309.2349 205.3857,302.3659 221.3637,296.1129 C246.3277,286.3439 271.3957,276.8059 296.6617,267.8549 C308.4217,263.6889 316.6097,256.5939 322.0747,245.5159 C339.6657,209.8509 362.8877,177.7029 385.3917,145.1219 C392.5837,134.7089 399.0517,123.7979 406.9687,113.8809 C414.8167,104.0499 424.7437,97.9789 437.3747,96.6029 C443.3257,95.9549 448.1127,97.8599 451.6757,102.7939 C455.1227,107.5699 457.1417,113.0719 459.7977,118.2509 C470.6677,139.4509 481.6477,160.5949 492.5107,181.7989 C499.5777,195.5949 505.9637,209.6939 511.3967,224.2339 C516.6657,238.3389 521.6777,241.5699 536.7987,241.9119 C563.9437,242.5269 590.9447,245.1079 617.9597,247.6889 C644.6247,250.2359 671.2977,252.6229 697.7257,257.0639 C711.6587,259.4049 725.7777,260.6199 739.5577,263.8749 C754.8237,267.4819 762.8537,277.8639 765.9377,292.5989 C767.9097,302.0249 763.8247,309.3979 757.4807,315.9739 C739.7437,334.3589 720.2777,350.8179 700.4577,366.8389 C683.0737,380.8919 666.9617,396.3339 650.4097,411.2979 C632.4947,427.4949 614.9107,444.0709 596.6727,459.8939 C586.2687,468.9219 583.1847,478.9369 586.5517,492.3219 C601.7347,552.6759 616.4767,613.1409 631.2707,673.5909 C635.1847,689.5839 639.7137,705.4359 642.6567,721.6579 C646.1407,740.8689 628.8437,761.9719 610.3797,760.8779 C602.4087,760.4049 595.3767,756.6019 588.2027,753.5469 C554.2367,739.0759 522.3227,720.7329 490.9067,701.4959 C464.2007,685.1429 437.4787,668.8109 412.2787,650.1389 C404.2267,644.1719 395.4167,639.4849 385.9317,636.1439 C397.5837,632.9939 403.9237,624.7899 404.0047,612.6489 C404.0477,606.3189 404.0647,599.9869 403.9377,593.6589 C403.8567,589.6029 405.4667,587.1599 409.4747,585.9519 C416.0307,583.9739 422.3287,581.2619 428.0677,577.4979 C460.8917,555.9739 480.6117,525.7169 485.4527,486.8629 C488.5777,461.7919 489.2487,436.4139 491.0497,411.1759 C491.6287,403.0439 492.3267,394.9199 492.9127,386.7879 C493.0327,385.1179 493.0177,383.2079 491.3457,382.3229 C489.6347,381.4159 488.1777,382.6529 486.8367,383.6669 C478.5367,389.9459 472.4857,398.0059 471.1887,408.3539 C468.5177,429.6519 466.0377,451.0079 464.5667,472.4139 C462.6607,500.1409 452.3877,523.6819 432.3027,542.8459 C401.6907,572.0519 357.2737,571.6569 329.5407,541.8639 C314.1297,525.3069 306.4627,505.4209 305.9867,482.9079 C305.6087,465.0919 305.8657,447.2619 305.7427,429.4379 C305.6787,420.2179 303.8577,411.5379 296.9807,404.7079 C295.6727,403.4089 294.0407,401.9339 292.2267,402.4089 C290.0327,402.9819 290.5507,405.4529 290.4527,407.1079 C290.1297,412.5919 290.1617,418.0959 289.9367,423.5869 C288.9697,447.2189 287.1427,470.9739 289.4887,494.4769 C293.5867,535.5389 312.5977,567.3069 351.6077,584.7459 C355.3777,586.4319 356.9797,588.8389 357.0007,592.7389 C357.0287,597.9029 357.0337,603.0709 357.2427,608.2289 C357.8147,622.3299 363.8937,631.0409 376.0377,635.3769" fill="#EF232A" transform="translate(0 -304)"/>
    <path d="M376.0381,635.3768 C363.8941,631.0408 357.8141,622.3298 357.2431,608.2298 C357.0341,603.0708 357.0291,597.9028 357.0011,592.7388 C356.9801,588.8388 355.3781,586.4318 351.6081,584.7458 C312.5981,567.3078 293.5861,535.5388 289.4881,494.4778 C287.1421,470.9748 288.9691,447.2188 289.9371,423.5868 C290.1621,418.0958 290.1291,412.5918 290.4531,407.1078 C290.5511,405.4528 290.0331,402.9818 292.2261,402.4088 C294.0411,401.9348 295.6731,403.4088 296.9811,404.7088 C303.8571,411.5378 305.6791,420.2178 305.7431,429.4378 C305.8661,447.2618 305.6091,465.0918 305.9861,482.9078 C306.4631,505.4208 314.1291,525.3078 329.5401,541.8638 C357.2741,571.6568 401.6901,572.0518 432.3021,542.8458 C452.3881,523.6828 462.6611,500.1418 464.5661,472.4138 C466.0381,451.0078 468.5171,429.6518 471.1881,408.3548 C472.4851,398.0058 478.5371,389.9458 486.8371,383.6678 C488.1781,382.6528 489.6351,381.4168 491.3461,382.3228 C493.0171,383.2088 493.0331,385.1178 492.9131,386.7878 C492.3271,394.9198 491.6291,403.0438 491.0501,411.1758 C489.2491,436.4148 488.5781,461.7918 485.4531,486.8628 C480.6111,525.7168 460.8921,555.9748 428.0671,577.4978 C422.3291,581.2618 416.0301,583.9748 409.4751,585.9518 C405.4671,587.1598 403.8561,589.6038 403.9371,593.6588 C404.0651,599.9868 404.0471,606.3188 404.0051,612.6488 C403.9241,624.7898 397.5841,632.9938 385.9321,636.1448 L376.0381,635.3768 Z" fill="#FEFEFE" transform="translate(0 -304)"/>
    <path d="M471.7617,331.9739 C476.4767,332.0139 483.3637,330.5819 490.0377,332.8019 C495.8557,334.7369 500.5447,338.0379 501.5767,344.6519 C502.5927,351.1619 499.5237,355.8879 494.5537,359.6379 C490.6207,362.6059 486.2467,364.6239 481.2957,365.0119 C472.9927,365.6609 464.6687,366.0459 456.3737,366.7639 C449.5577,367.3519 449.2347,367.8319 448.8687,374.6439 C447.6207,397.9239 446.8317,421.2399 445.0207,444.4759 C443.1167,468.8979 435.0537,491.3359 420.0507,510.9209 C411.1417,522.5509 400.5117,531.9639 385.2417,534.1879 C369.7837,536.4399 356.9837,531.1599 346.7347,519.7469 C333.7507,505.2879 327.3307,487.8739 323.9817,468.9369 C320.5717,449.6569 323.5287,430.5609 324.5417,411.3999 C325.0247,402.2619 325.9847,393.1479 326.7647,384.0259 C327.1327,379.7209 325.2907,377.7909 320.9347,378.2819 C314.9807,378.9519 309.0307,379.7089 303.0577,380.1509 C297.9307,380.5299 293.2417,379.0569 290.6307,374.3439 C287.9037,369.4229 288.7047,364.2909 291.5947,359.6169 C295.0887,353.9659 300.1737,350.3129 306.7207,349.0559 C312.6007,347.9259 318.5187,346.8569 324.4697,346.2829 C329.7577,345.7729 331.8597,343.2599 332.3997,338.0519 C334.8387,314.5379 337.9877,291.1069 341.7967,267.7759 C346.2957,240.2219 358.7957,217.0429 380.7817,199.5409 C392.0797,190.5469 404.9857,185.5809 419.8087,187.4329 C429.7747,188.6789 437.6007,193.6599 443.7537,201.4379 C452.0407,211.9129 455.6367,224.0979 456.0927,237.2049 C456.7057,254.8549 453.1937,272.2469 452.3277,289.8119 C451.7077,302.4109 449.8637,314.9249 449.8157,327.5659 C449.8007,331.3859 451.3977,333.1429 455.2077,332.9149 C460.0317,332.6269 464.8567,332.3649 471.7617,331.9739" fill="#FEFEFE" transform="translate(0 -304)"/>
  </g>
</svg>